<mxfile host="Electron" agent="Mozilla/5.0 (X11; Linux x86_64) AppleWebKit/537.36 (KHTML, like Gecko) draw.io/25.0.1 Chrome/128.0.6613.186 Electron/32.2.6 Safari/537.36" version="25.0.1">
  <diagram name="Page-1" id="C0TTzloq1Vdm2UTvwTLK">
    <mxGraphModel dx="1456" dy="725" grid="1" gridSize="10" guides="1" tooltips="1" connect="1" arrows="1" fold="1" page="1" pageScale="1" pageWidth="1100" pageHeight="850" math="0" shadow="0">
      <root>
        <mxCell id="0" />
        <mxCell id="1" parent="0" />
        <mxCell id="lpFblWUsz3aCrupPQczd-22" style="edgeStyle=orthogonalEdgeStyle;rounded=0;orthogonalLoop=1;jettySize=auto;html=1;exitX=0.5;exitY=1;exitDx=0;exitDy=0;entryX=0.5;entryY=0;entryDx=0;entryDy=0;" edge="1" parent="1" source="Qm9friMbtk5Wdlpzol8I-1" target="Qm9friMbtk5Wdlpzol8I-3">
          <mxGeometry relative="1" as="geometry" />
        </mxCell>
        <mxCell id="Qm9friMbtk5Wdlpzol8I-1" value="Gridmap上セルの選択が可能" style="rounded=1;whiteSpace=wrap;html=1;" parent="1" vertex="1">
          <mxGeometry x="140" y="95" width="120" height="60" as="geometry" />
        </mxCell>
        <mxCell id="Qm9friMbtk5Wdlpzol8I-2" value="&lt;div&gt;&lt;b&gt;gridmap_creator&lt;/b&gt;&lt;/div&gt;Reactアプリケーション&lt;div&gt;（rosbridge_serverと連携）&lt;/div&gt;" style="text;html=1;align=center;verticalAlign=middle;whiteSpace=wrap;rounded=0;" parent="1" vertex="1">
          <mxGeometry x="117.5" y="50" width="175" height="40" as="geometry" />
        </mxCell>
        <mxCell id="Qm9friMbtk5Wdlpzol8I-3" value="セル選択後、Applyボタン押下によって選択状態の更新をTrigger" style="rounded=1;whiteSpace=wrap;html=1;" parent="1" vertex="1">
          <mxGeometry x="135" y="172" width="130" height="60" as="geometry" />
        </mxCell>
        <mxCell id="lpFblWUsz3aCrupPQczd-1" value="nav_msgs::msg::OccupancyGrid&lt;div&gt;/selected_gridmap&lt;/div&gt;&lt;div&gt;publish&lt;/div&gt;" style="rounded=1;whiteSpace=wrap;html=1;" vertex="1" parent="1">
          <mxGeometry x="112.5" y="245" width="210" height="60" as="geometry" />
        </mxCell>
        <mxCell id="lpFblWUsz3aCrupPQczd-2" value="&lt;div&gt;(include this in launch file）&lt;/div&gt;map_saver_server.launch.py&lt;div&gt;launch&lt;/div&gt;" style="rounded=1;whiteSpace=wrap;html=1;" vertex="1" parent="1">
          <mxGeometry x="560" y="85" width="170" height="60" as="geometry" />
        </mxCell>
        <mxCell id="lpFblWUsz3aCrupPQczd-3" value="&lt;b&gt;occupancy_maze_simulator&lt;/b&gt;" style="text;html=1;align=center;verticalAlign=middle;whiteSpace=wrap;rounded=0;" vertex="1" parent="1">
          <mxGeometry x="560" y="55" width="160" height="30" as="geometry" />
        </mxCell>
        <mxCell id="lpFblWUsz3aCrupPQczd-4" value="map_server" style="rounded=1;whiteSpace=wrap;html=1;" vertex="1" parent="1">
          <mxGeometry x="370" y="85" width="120" height="60" as="geometry" />
        </mxCell>
        <mxCell id="lpFblWUsz3aCrupPQczd-5" value="&lt;b&gt;nav2_map_server&lt;/b&gt;" style="text;html=1;align=center;verticalAlign=middle;whiteSpace=wrap;rounded=0;" vertex="1" parent="1">
          <mxGeometry x="400" y="55" width="60" height="30" as="geometry" />
        </mxCell>
        <mxCell id="lpFblWUsz3aCrupPQczd-36" style="edgeStyle=orthogonalEdgeStyle;rounded=0;orthogonalLoop=1;jettySize=auto;html=1;exitX=1;exitY=0.5;exitDx=0;exitDy=0;entryX=1;entryY=0.5;entryDx=0;entryDy=0;" edge="1" parent="1" source="lpFblWUsz3aCrupPQczd-6" target="lpFblWUsz3aCrupPQczd-9">
          <mxGeometry relative="1" as="geometry" />
        </mxCell>
        <mxCell id="lpFblWUsz3aCrupPQczd-6" value="if mode = selected" style="rounded=1;whiteSpace=wrap;html=1;" vertex="1" parent="1">
          <mxGeometry x="585" y="159" width="120" height="60" as="geometry" />
        </mxCell>
        <mxCell id="lpFblWUsz3aCrupPQczd-14" style="edgeStyle=orthogonalEdgeStyle;rounded=0;orthogonalLoop=1;jettySize=auto;html=1;exitX=0;exitY=0.5;exitDx=0;exitDy=0;entryX=1;entryY=0.5;entryDx=0;entryDy=0;" edge="1" parent="1" source="lpFblWUsz3aCrupPQczd-8" target="lpFblWUsz3aCrupPQczd-4">
          <mxGeometry relative="1" as="geometry" />
        </mxCell>
        <mxCell id="lpFblWUsz3aCrupPQczd-8" value="map_serverにサービスコール&lt;div&gt;map_url(gridmapの場所)を提供&lt;/div&gt;&lt;div&gt;gridmapをresponceで受け取る。&lt;/div&gt;" style="rounded=1;whiteSpace=wrap;html=1;" vertex="1" parent="1">
          <mxGeometry x="554" y="235" width="192" height="100" as="geometry" />
        </mxCell>
        <mxCell id="lpFblWUsz3aCrupPQczd-13" style="edgeStyle=orthogonalEdgeStyle;rounded=0;orthogonalLoop=1;jettySize=auto;html=1;exitX=0;exitY=0.5;exitDx=0;exitDy=0;entryX=0.75;entryY=1;entryDx=0;entryDy=0;" edge="1" parent="1" source="lpFblWUsz3aCrupPQczd-9" target="lpFblWUsz3aCrupPQczd-12">
          <mxGeometry relative="1" as="geometry" />
        </mxCell>
        <mxCell id="lpFblWUsz3aCrupPQczd-9" value="map_saverにサービスコール&lt;div&gt;map_urlとmap_topicを提供&lt;/div&gt;" style="rounded=1;whiteSpace=wrap;html=1;" vertex="1" parent="1">
          <mxGeometry x="554" y="350" width="196" height="60" as="geometry" />
        </mxCell>
        <mxCell id="lpFblWUsz3aCrupPQczd-18" style="edgeStyle=orthogonalEdgeStyle;rounded=0;orthogonalLoop=1;jettySize=auto;html=1;entryX=0;entryY=0.5;entryDx=0;entryDy=0;" edge="1" parent="1" source="lpFblWUsz3aCrupPQczd-12" target="lpFblWUsz3aCrupPQczd-16">
          <mxGeometry relative="1" as="geometry" />
        </mxCell>
        <mxCell id="lpFblWUsz3aCrupPQczd-21" value="gridmapを保存する" style="edgeLabel;html=1;align=center;verticalAlign=middle;resizable=0;points=[];" vertex="1" connectable="0" parent="lpFblWUsz3aCrupPQczd-18">
          <mxGeometry x="-0.1765" relative="1" as="geometry">
            <mxPoint y="43" as="offset" />
          </mxGeometry>
        </mxCell>
        <mxCell id="lpFblWUsz3aCrupPQczd-12" value="map_saver" style="rounded=1;whiteSpace=wrap;html=1;" vertex="1" parent="1">
          <mxGeometry x="370" y="185" width="120" height="60" as="geometry" />
        </mxCell>
        <mxCell id="lpFblWUsz3aCrupPQczd-15" style="edgeStyle=orthogonalEdgeStyle;rounded=0;orthogonalLoop=1;jettySize=auto;html=1;exitX=1;exitY=0.5;exitDx=0;exitDy=0;entryX=0.375;entryY=1;entryDx=0;entryDy=0;entryPerimeter=0;" edge="1" parent="1" source="lpFblWUsz3aCrupPQczd-1" target="lpFblWUsz3aCrupPQczd-12">
          <mxGeometry relative="1" as="geometry" />
        </mxCell>
        <mxCell id="lpFblWUsz3aCrupPQczd-16" value="選択状態を示すGridmapの保存場所&lt;div&gt;(~/.ros/save/selected_gridmap.pgm)&lt;/div&gt;" style="rounded=1;whiteSpace=wrap;html=1;" vertex="1" parent="1">
          <mxGeometry x="475" y="425" width="340" height="60" as="geometry" />
        </mxCell>
        <mxCell id="lpFblWUsz3aCrupPQczd-19" style="edgeStyle=orthogonalEdgeStyle;rounded=0;orthogonalLoop=1;jettySize=auto;html=1;entryX=1;entryY=0.75;entryDx=0;entryDy=0;startArrow=classic;startFill=1;endArrow=none;endFill=0;" edge="1" parent="1" target="lpFblWUsz3aCrupPQczd-4">
          <mxGeometry relative="1" as="geometry">
            <mxPoint x="581" y="425" as="sourcePoint" />
            <mxPoint x="510.0000000000001" y="145.00000000000006" as="targetPoint" />
            <Array as="points">
              <mxPoint x="581" y="415" />
              <mxPoint x="510" y="415" />
              <mxPoint x="510" y="130" />
            </Array>
          </mxGeometry>
        </mxCell>
        <mxCell id="lpFblWUsz3aCrupPQczd-20" value="読み取る" style="edgeLabel;html=1;align=center;verticalAlign=middle;resizable=0;points=[];" vertex="1" connectable="0" parent="lpFblWUsz3aCrupPQczd-19">
          <mxGeometry x="0.7565" y="1" relative="1" as="geometry">
            <mxPoint x="-12" y="3" as="offset" />
          </mxGeometry>
        </mxCell>
        <mxCell id="lpFblWUsz3aCrupPQczd-24" style="edgeStyle=orthogonalEdgeStyle;rounded=0;orthogonalLoop=1;jettySize=auto;html=1;exitX=0.5;exitY=1;exitDx=0;exitDy=0;entryX=0.425;entryY=-0.001;entryDx=0;entryDy=0;entryPerimeter=0;" edge="1" parent="1" source="Qm9friMbtk5Wdlpzol8I-3" target="lpFblWUsz3aCrupPQczd-1">
          <mxGeometry relative="1" as="geometry" />
        </mxCell>
        <mxCell id="lpFblWUsz3aCrupPQczd-25" style="edgeStyle=orthogonalEdgeStyle;rounded=0;orthogonalLoop=1;jettySize=auto;html=1;exitX=0.5;exitY=1;exitDx=0;exitDy=0;entryX=0.453;entryY=-0.005;entryDx=0;entryDy=0;entryPerimeter=0;" edge="1" parent="1" source="lpFblWUsz3aCrupPQczd-6" target="lpFblWUsz3aCrupPQczd-8">
          <mxGeometry relative="1" as="geometry" />
        </mxCell>
        <mxCell id="lpFblWUsz3aCrupPQczd-30" value="" style="edgeStyle=orthogonalEdgeStyle;rounded=0;orthogonalLoop=1;jettySize=auto;html=1;" edge="1" parent="1" source="lpFblWUsz3aCrupPQczd-28" target="lpFblWUsz3aCrupPQczd-29">
          <mxGeometry relative="1" as="geometry" />
        </mxCell>
        <mxCell id="lpFblWUsz3aCrupPQczd-28" value="&lt;b&gt;gridmap_creator起動時&lt;/b&gt;&lt;div&gt;&lt;b&gt;or&lt;/b&gt;&lt;/div&gt;&lt;div&gt;&lt;b&gt;Fetchボタン押下&lt;/b&gt;&lt;/div&gt;" style="rounded=1;whiteSpace=wrap;html=1;" vertex="1" parent="1">
          <mxGeometry x="110" y="315" width="190" height="60" as="geometry" />
        </mxCell>
        <mxCell id="lpFblWUsz3aCrupPQczd-32" value="" style="edgeStyle=orthogonalEdgeStyle;rounded=0;orthogonalLoop=1;jettySize=auto;html=1;" edge="1" parent="1" source="lpFblWUsz3aCrupPQczd-29" target="lpFblWUsz3aCrupPQczd-31">
          <mxGeometry relative="1" as="geometry" />
        </mxCell>
        <mxCell id="lpFblWUsz3aCrupPQczd-29" value="map_serverにサービスコール&lt;div&gt;map_urlを提供&lt;/div&gt;&lt;div&gt;gridmapをresponceで受け取る。&lt;/div&gt;" style="rounded=1;whiteSpace=wrap;html=1;" vertex="1" parent="1">
          <mxGeometry x="110" y="395" width="190" height="60" as="geometry" />
        </mxCell>
        <mxCell id="lpFblWUsz3aCrupPQczd-31" value="結果をアプリ上で可視化" style="rounded=1;whiteSpace=wrap;html=1;" vertex="1" parent="1">
          <mxGeometry x="130" y="475" width="150" height="60" as="geometry" />
        </mxCell>
        <mxCell id="lpFblWUsz3aCrupPQczd-35" style="edgeStyle=orthogonalEdgeStyle;rounded=0;orthogonalLoop=1;jettySize=auto;html=1;entryX=1;entryY=0.5;entryDx=0;entryDy=0;" edge="1" parent="1" source="lpFblWUsz3aCrupPQczd-33" target="lpFblWUsz3aCrupPQczd-8">
          <mxGeometry relative="1" as="geometry">
            <Array as="points">
              <mxPoint x="830" y="530" />
              <mxPoint x="830" y="285" />
            </Array>
          </mxGeometry>
        </mxCell>
        <mxCell id="lpFblWUsz3aCrupPQczd-33" value="/selected_gridmap&lt;div&gt;Subscribe&lt;/div&gt;" style="rounded=1;whiteSpace=wrap;html=1;" vertex="1" parent="1">
          <mxGeometry x="560" y="500" width="120" height="60" as="geometry" />
        </mxCell>
        <mxCell id="lpFblWUsz3aCrupPQczd-34" value="gridmap_creatorとの&lt;div&gt;リアルタイム連携も可能&lt;/div&gt;" style="text;html=1;align=center;verticalAlign=middle;whiteSpace=wrap;rounded=0;" vertex="1" parent="1">
          <mxGeometry x="680" y="494" width="140" height="30" as="geometry" />
        </mxCell>
        <mxCell id="lpFblWUsz3aCrupPQczd-37" style="edgeStyle=orthogonalEdgeStyle;rounded=0;orthogonalLoop=1;jettySize=auto;html=1;exitX=1;exitY=0.75;exitDx=0;exitDy=0;entryX=-0.002;entryY=0.611;entryDx=0;entryDy=0;entryPerimeter=0;" edge="1" parent="1" source="lpFblWUsz3aCrupPQczd-1" target="lpFblWUsz3aCrupPQczd-33">
          <mxGeometry relative="1" as="geometry">
            <Array as="points">
              <mxPoint x="370" y="290" />
              <mxPoint x="370" y="537" />
            </Array>
          </mxGeometry>
        </mxCell>
      </root>
    </mxGraphModel>
  </diagram>
</mxfile>
